<?xml version="1.0" encoding="UTF-8" ?>
<svg width="64" height="64" viewBox="0 0 64 64" xmlns="http://www.w3.org/2000/svg">

<path d="
M 0,0
l 8,0
l 56,56
l 0,8
l -64,0
z
" fill="#fff" stroke="none" />

<path  d="
M 3 55
a 2.8284 2.8284 0 0 1 4 -4
l 6 6
a 2.8284 2.8284 0 1 1 -4 4
z

M 3 39
a 2.8284 2.8284 0 0 1 4 -4
l 22 22
a 2.8284 2.8284 0 1 1 -4 4
z

M 3 23
a 2.8284 2.8284 0 0 1 4 -4
l 38 38
a 2.8284 2.8284 0 1 1 -4 4
z

M 3 7
a 2.8284 2.8284 0 0 1 4 -4
l 54 54
a 2.8284 2.8284 0 1 1 -4 4
z
" fill="#000" stroke="none" />

</svg>
